# xmcd CD database file
#
# Track frame offsets:
#	150
#	13083
#	21783
#	29958
#	40383
#	51108
#	61383
#	74733
#	83883
#	95658
#	106533
#	119808
#	130983
#	140808
#	150783
#
# Disc length: 2136 seconds
#
# Revision: 3
# Processed by: cddbd v1.4PL0 Copyright (c) Steve Scherf et al.
# Submitted via: CDex 1.51
#
DISCID=d908560f
DTITLE=Nat King Cole - Recordando A Nat King Cole
DYEAR=1900
DGENRE=Jazz
TTITLE0=Cachito
TTITLE1=Fantastico
TTITLE2=La Feria de las flores
TTITLE3=Nao tenho lagrimas
TTITLE4=Yo vendo unos ojos negros
TTITLE5=Ay cosita Linda
TTITLE6=Las mananitas
TTITLE7=Guadalajara
TTITLE8=Las chiapanecas
TTITLE9=El bodeguero
TTITLE10=La golondrina
TTITLE11=Capullito de aleli
TTITLE12=Piel canela
TTITLE13=El chocio
TTITLE14=Adelita
EXTD=
EXTT0=
EXTT1=
EXTT2=
EXTT3=
EXTT4=
EXTT5=
EXTT6=
EXTT7=
EXTT8=
EXTT9=
EXTT10=
EXTT11=
EXTT12=
EXTT13=
EXTT14=
PLAYORDER=
